<?xml version="1.0" encoding="utf-8"?>
<!-- Generator: Adobe Illustrator 18.0.0, SVG Export Plug-In . SVG Version: 6.00 Build 0)  -->
<!DOCTYPE svg PUBLIC "-//W3C//DTD SVG 1.1//EN" "http://www.w3.org/Graphics/SVG/1.1/DTD/svg11.dtd">
<svg version="1.1" id="Layer_1" xmlns="http://www.w3.org/2000/svg" xmlns:xlink="http://www.w3.org/1999/xlink" x="0px" y="0px"
	 width="256px" height="256px" viewBox="0 0 256 256" enable-background="new 0 0 256 256" xml:space="preserve">
<g>
	<g>
		<g>
			<g>
				<path fill="#71CDE1" d="M84.7,33.1L78,30.4l2.9-6.6l-2.4-2.4l-6.6,2.9l-2.7-6.7h-2.8l-2.7,6.7L57,21.4l-2,2l2.9,6.6l-6.7,2.6
					v2.8l6.7,2.7L55,44.8l2.3,2.3l0.1,0.1l6.6-2.9l2.7,6.7h2.8l2.7-6.7l6.6,2.9l2-2L78,38.6l6.7-2.7V33.1z M67.9,39.8
					c-3,0-5.5-2.5-5.5-5.5s2.5-5.5,5.5-5.5s5.5,2.5,5.5,5.5S71,39.8,67.9,39.8z"/>
			</g>
		</g>
		<g>
			<g>
				<g>
					<path fill="#E0E0E0" d="M206.7,255.8l11.1-84c14.1,2.1,24.9,14.4,24.9,29.1v54.9H206.7z"/>
				</g>
				<g>
					<path fill="#E0E0E0" d="M157.4,255.8v-71.1c0-3.5-0.4-6.9-1.1-10.2c2.6-1.3,5.5-2.2,8.4-2.6l10.3,84H157.4z"/>
				</g>
			</g>
			<g>
				<path fill="#4A555F" d="M191.3,167.8c-17.2,0-31.2-14-31.2-31.2s14-31.2,31.2-31.2s31.2,14,31.2,31.2
					C222.5,153.8,208.5,167.8,191.3,167.8z M191.3,108.5c-15.5,0-28.1,12.6-28.1,28.1c0,15.5,12.6,28.1,28.1,28.1
					c15.5,0,28.1-12.6,28.1-28.1C219.5,121.1,206.8,108.5,191.3,108.5z"/>
			</g>
			<g>
				<path fill="#FFD552" d="M191.3,161.2c-13.6,0-24.6-11-24.6-24.6c0-13.6,11-24.6,24.6-24.6s24.6,11,24.6,24.6
					C215.9,150.2,204.9,161.2,191.3,161.2z"/>
			</g>
			<g>
				<path fill="#4A555F" d="M249.6,255.8h-3.1v-54c0-18.7-15.2-34-34-34H167c-4.1,0-8.1,0.7-11.9,2.1l-1.1-2.9
					c4.2-1.6,8.5-2.3,13-2.3h45.6c20.4,0,37,16.6,37,37V255.8z"/>
			</g>
			<g>
				<path fill="#4A555F" d="M179.6,256l-7.4-57.8l-0.2-0.1l0.1-0.2l-4.3-33.2h9.6l10.1,12.3l-12.3,21.5l7.3,57.1L179.6,256z
					 M171.3,167.8l3.3,25.7l9.3-16.2l-7.9-9.5H171.3z"/>
			</g>
			<g>
				<path fill="#4A555F" d="M203,256l-3-0.4l7.4-57.1L196,176.5l10.1-11.8h8.6l-4.3,33.1l0.2,0.3l-0.2,0.1L203,256z M199.7,177
					l8.3,16.2l3.3-25.3h-3.7L199.7,177z"/>
			</g>
			<g>
				<rect x="189.9" y="184" fill="#4A555F" width="3.1" height="71.8"/>
			</g>
			<g>
				<polygon fill="#4A555F" points="191.4,186.3 184.6,178.2 186.9,176.2 191.5,181.6 196.7,175.7 199,177.8 				"/>
			</g>
			<g>
				<path fill="#4A555F" d="M199.7,206.6c-2.5,0-4.6-2.1-4.6-4.6c0-2.5,2.1-4.6,4.6-4.6s4.6,2.1,4.6,4.6
					C204.3,204.5,202.3,206.6,199.7,206.6z M199.7,200.4c-0.9,0-1.5,0.7-1.5,1.5s0.7,1.5,1.5,1.5s1.5-0.7,1.5-1.5
					S200.6,200.4,199.7,200.4z"/>
			</g>
			<g>
				<path fill="#4A555F" d="M199.7,229c-2.5,0-4.6-2.1-4.6-4.6s2.1-4.6,4.6-4.6s4.6,2.1,4.6,4.6S202.3,229,199.7,229z M199.7,222.8
					c-0.9,0-1.5,0.7-1.5,1.5s0.7,1.5,1.5,1.5s1.5-0.7,1.5-1.5S200.6,222.8,199.7,222.8z"/>
			</g>
			<g>
				<path fill="#4A555F" d="M199.7,249.8c-2.5,0-4.6-2.1-4.6-4.6c0-2.5,2.1-4.6,4.6-4.6s4.6,2.1,4.6,4.6
					C204.3,247.8,202.3,249.8,199.7,249.8z M199.7,243.7c-0.9,0-1.5,0.7-1.5,1.5c0,0.9,0.7,1.5,1.5,1.5s1.5-0.7,1.5-1.5
					C201.3,244.4,200.6,243.7,199.7,243.7z"/>
			</g>
		</g>
		<g>
			<g>
				<g>
					<path fill="#E0E0E0" d="M101.7,255.8l14.2-112.6c20.7,2.2,36.8,19.8,36.8,41v71.5H101.7z"/>
				</g>
				<g>
					<path fill="#E0E0E0" d="M63.6,255.8L49.5,143.2c-20.7,2.2-36.8,19.8-36.8,41v71.5H63.6z"/>
				</g>
				<g>
					<polygon fill="#F68F6F" points="97.2,245.6 88.9,165.9 92.5,155.7 95.2,148 70,148 72.7,155.7 76.3,165.9 68,244.3 54.5,142 
						69.4,255.8 95.8,255.8 112.2,142.6 					"/>
				</g>
			</g>
			<g>
				<path fill="#4A555F" d="M82.6,139.4c-22.4,0-40.6-18.2-40.6-40.6c0-22.4,18.2-40.6,40.6-40.6s40.6,18.2,40.6,40.6
					C123.3,121.2,105,139.4,82.6,139.4z M82.6,61.2c-20.7,0-37.6,16.8-37.6,37.6s16.9,37.6,37.6,37.6s37.6-16.8,37.6-37.6
					S103.3,61.2,82.6,61.2z"/>
			</g>
			<g>
				<path fill="#FFD552" d="M82.6,132.8c-18.7,0-34-15.3-34-34s15.3-34,34-34s34,15.3,34,34S101.4,132.8,82.6,132.8z"/>
			</g>
			<g>
				<path fill="#4A555F" d="M158.9,255.8h-3.1v-71.1c0-24.9-20.3-45.2-45.2-45.2h-56c-24.9,0-45.2,20.3-45.2,45.2v71.1H6.4v-71.1
					c0-26.6,21.7-48.3,48.3-48.3h56c26.6,0,48.3,21.7,48.3,48.3V255.8z"/>
			</g>
			<g>
				<path fill="#4A555F" d="M90,167.4H75.2l-7.4-20.9h29.6L90,167.4z M77.4,164.3h10.5l5.2-14.8H72.2L77.4,164.3z"/>
			</g>
			<g>
				<polygon fill="#4A555F" points="98.1,256 95.1,255.6 96,248.7 87.6,167.4 77.7,167.4 69.5,246.3 70.7,255.6 67.7,256 
					66.4,246.4 66.4,246.2 74.9,164.3 90.3,164.3 99.1,248.7 				"/>
			</g>
			<g>
				<path fill="#4A555F" d="M57.4,174.6l-5.2-38.2h15.2l7,19.7L57.4,174.6z M55.7,139.4l3.8,28.3L71,155.4l-5.6-16H55.7z"/>
			</g>
			<g>
				<path fill="#4A555F" d="M109,175.6l-18.2-19.5l7-19.7h16.5L109,175.6z M94.4,155.4l12.5,13.5l4-29.4H100L94.4,155.4z"/>
			</g>
			<g>
				
					<rect x="2.1" y="195.3" transform="matrix(0.1276 0.9918 -0.9918 0.1276 248.9458 110.6399)" fill="#4A555F" width="118.9" height="3.1"/>
			</g>
			<g>
				
					<rect x="103.1" y="137.3" transform="matrix(0.9909 0.1346 -0.1346 0.9909 27.4473 -12.2909)" fill="#4A555F" width="3.1" height="119"/>
			</g>
		</g>
		<g>
			<g>
				<path fill="#71CDE1" d="M155.1,27.7l-11.3-4.5l4.9-11.2L144.6,8l-11.2,4.9l-4.5-11.3h-4.7l-4.5,11.3L108.5,8l-3.4,3.4l4.9,11.2
					L98.7,27v4.7l11.3,4.5l-4.9,11.2l3.9,3.9l0.1,0.1l11.2-4.9l4.5,11.3h4.7l4.5-11.3l11.2,4.9l3.4-3.4l-4.9-11.2l11.3-4.5V27.7z
					 M126.9,39c-5.1,0-9.3-4.2-9.3-9.3s4.1-9.3,9.3-9.3c5.1,0,9.3,4.1,9.3,9.3S132,39,126.9,39z"/>
			</g>
		</g>
		<g>
			<g>
				<path fill="#4A555F" d="M130.7,59.4h-6.8l-4.3-10.8l-10.7,4.7l-0.8-0.9l-4.6-4.6L108,37l-10.8-4.3v-6.8l10.8-4.3L103.4,11
					l4.8-4.8l10.7,4.6L123.1,0h6.8l4.3,10.8l10.7-4.6l5.5,5.5l-4.6,10.7l10.8,4.3v6.8l-10.8,4.3l4.6,10.7l-4.8,4.8l-10.7-4.6
					L130.7,59.4z M125.9,56.4h2.7l4.7-11.8l11.7,5.1l1.9-1.9l-5.1-11.7l11.8-4.7v-2.7l-11.8-4.7l5.1-11.7l-2.6-2.6l-11.7,5.1
					l-4.7-11.8h-2.7l-4.7,11.8l-11.7-5.1l-1.9,1.9l5.1,11.7L100.2,28v2.7l11.8,4.7L107,47l2.6,2.6l11.7-5.1L125.9,56.4z M126.9,40.5
					c-5.9,0-10.8-4.8-10.8-10.8c0-5.9,4.8-10.8,10.8-10.8c5.9,0,10.8,4.8,10.8,10.8C137.7,35.7,132.9,40.5,126.9,40.5z M126.9,22
					c-4.3,0-7.7,3.5-7.7,7.7c0,4.3,3.5,7.7,7.7,7.7c4.3,0,7.7-3.5,7.7-7.7C134.6,25.5,131.2,22,126.9,22z"/>
			</g>
		</g>
		<g>
			<g>
				<path fill="#71CDE1" d="M227.9,59.5l-14.2-5.6l6.1-14l-4.2-4.2l-0.7-0.7l-0.2-0.2l-14,6.1l-5.6-14.2h-6l-5.6,14.2l-14-6.1
					l-4.2,4.2l6.1,14l-14.2,5.6v6l14.2,5.6l-6.1,14l1.3,1.3l3.7,3.7l0.2,0.2l14-6.1l5.6,14.2h6l5.6-14.2l14,6.1l3.9-3.9l0.3-0.3
					l-6.1-14l14.2-5.6V59.5z M192.5,74c-6.6,0-12-5.4-12-12s5.4-12,12-12c6.6,0,12,5.4,12,12S199.1,74,192.5,74z"/>
			</g>
		</g>
		<g>
			<g>
				<path fill="#4A555F" d="M197,99h-8l-5.4-13.7L170,91.2l-6.6-6.6l5.9-13.5l-13.7-5.4v-8l13.7-5.4l-5.9-13.5l5.7-5.7l13.5,5.9
					l5.4-13.7h8l5.4,13.7L215,33l6.6,6.6l-5.9,13.5l13.7,5.4v8l-13.7,5.4l5.9,13.5l-5.7,5.7l-13.5-5.9L197,99z M191,95.9h3.9
					l5.8-14.7l14.5,6.3l2.7-2.7l-6.3-14.5l14.7-5.8v-3.9l-14.7-5.8l6.3-14.5l-3.6-3.6l-14.5,6.3L194,28.2h-3.9l-5.8,14.7l-14.5-6.3
					l-2.7,2.7l6.3,14.5l-14.7,5.8v3.9l14.7,5.8l-6.3,14.5l3.6,3.6l14.5-6.3L191,95.9z M192.5,75.6c-7.4,0-13.5-6.1-13.5-13.5
					s6.1-13.5,13.5-13.5S206,54.6,206,62.1S200,75.6,192.5,75.6z M192.5,51.6c-5.8,0-10.4,4.7-10.4,10.4s4.7,10.4,10.4,10.4
					S203,67.8,203,62.1S198.3,51.6,192.5,51.6z"/>
			</g>
		</g>
		<g>
			<g>
				<path fill="#71CDE1" d="M84.7,33.1L78,30.4l2.9-6.6l-2-2l-0.4-0.3l-0.1-0.1l-6.6,2.9l-2.6-6.7h-2.8l-2.6,6.7L57,21.4l-1.8,1.8
					L55,23.4l2.9,6.6l-6.7,2.6v2.8l6.7,2.6L55,44.8l0.6,0.6l1.8,1.7l0.1,0.1l6.6-2.9l2.6,6.7h2.8l2.6-6.7l6.6,2.9l1.8-1.8l0.1-0.2
					L78,38.6l6.7-2.6V33.1z M67.9,39c-2.6,0-4.7-2.1-4.7-4.7c0-2.6,2.1-4.7,4.7-4.7s4.7,2.1,4.7,4.7C72.7,36.9,70.5,39,67.9,39z"/>
			</g>
		</g>
		<g>
			<g>
				<g>
					<path fill="#71CDE1" d="M84.7,33.1L78,30.4l2.9-6.6l-2-2l-0.4-0.3l-0.1-0.1l-6.6,2.9l-2.6-6.7h-2.8l-2.6,6.7L57,21.4l-1.8,1.8
						L55,23.4l2.9,6.6l-6.7,2.6v2.8l6.7,2.6L55,44.8l0.6,0.6l1.8,1.7l0.1,0.1l6.6-2.9l2.6,6.7h2.8l2.6-6.7l6.6,2.9l1.8-1.8l0.1-0.2
						L78,38.6l6.7-2.6V33.1z M67.9,39c-2.6,0-4.7-2.1-4.7-4.7c0-2.6,2.1-4.7,4.7-4.7s4.7,2.1,4.7,4.7C72.7,36.9,70.5,39,67.9,39z"/>
				</g>
			</g>
		</g>
		<g>
			<g>
				<g>
					<g>
						<path fill="#4A555F" d="M67.9,40.3c-3.3,0-6-2.7-6-6c0-3.3,2.7-6,6-6s6,2.7,6,6C74,37.6,71.3,40.3,67.9,40.3z M67.9,30.6
							c-2,0-3.7,1.6-3.7,3.7c0,2,1.6,3.7,3.7,3.7c2,0,3.7-1.6,3.7-3.7C71.6,32.3,70,30.6,67.9,30.6z"/>
					</g>
				</g>
			</g>
		</g>
		<g>
			<g>
				<path fill="none" d="M67.9,40.5c-3.4,0-6.2-2.8-6.2-6.2s2.8-6.2,6.2-6.2c3.4,0,6.2,2.8,6.2,6.2S71.4,40.5,67.9,40.5z M67.9,31.1
					c-1.8,0-3.2,1.4-3.2,3.2s1.4,3.2,3.2,3.2c1.8,0,3.2-1.4,3.2-3.2S69.7,31.1,67.9,31.1z"/>
			</g>
		</g>
		<g>
			<g>
				<g>
					<path fill="none" d="M67.9,40.5c-3.4,0-6.2-2.8-6.2-6.2s2.8-6.2,6.2-6.2c3.4,0,6.2,2.8,6.2,6.2S71.4,40.5,67.9,40.5z
						 M67.9,31.1c-1.8,0-3.2,1.4-3.2,3.2s1.4,3.2,3.2,3.2c1.8,0,3.2-1.4,3.2-3.2S69.7,31.1,67.9,31.1z"/>
				</g>
			</g>
		</g>
		<g>
			<rect x="23.6" y="207.8" fill="#4A555F" width="3.1" height="48"/>
		</g>
		<g>
			<rect x="135.6" y="207.8" fill="#4A555F" width="3.1" height="48"/>
		</g>
		<g>
			<rect x="232.1" y="221.3" fill="#4A555F" width="3.1" height="34.5"/>
		</g>
		<g>
			<g>
				<g>
					<path fill="#4A555F" d="M70.6,52.6h-4.9l-2.5-6.2L57.1,49l-3.9-3.9l2.7-6.1l-6.2-2.4v-4.9l6.2-2.5L53.2,23l3.5-3.5l6.1,2.7
						l2.5-6.2h4.9l2.5,6.2l6.2-2.7l1.1,1.2l2.7,2.8L80,29.6l6.2,2.4v4.9L80,39.4l2.7,6.1l-0.8,0.9L79.2,49l-6.1-2.7L70.6,52.6z
						 M67.8,49.5h0.7l2.8-7.2l7.1,3.1l0.5-0.5l-3.1-7.1l7.2-2.8v-0.7l-7.2-2.8l3.1-7.1l-0.9-0.9L71,26.3l-2.8-7.2h-0.7l-2.8,7.2
						l-7.1-3.1l-0.5,0.5l3.1,7.1l-7.2,2.8v0.7l7.2,2.8l-3.1,7.1l0.9,0.9l7.1-3.1L67.8,49.5z"/>
				</g>
			</g>
		</g>
	</g>
	<g>
		<path fill="#4A555F" d="M158.9,255.8h-3.1v-71.1c0-3.3-0.4-6.7-1.1-9.9c-0.4-1.9-1-3.8-1.7-5.7l2.9-1.1c0.7,2,1.3,4,1.8,6.1
			c0.8,3.4,1.2,7,1.2,10.5V255.8z"/>
	</g>
</g>
</svg>
